<svg width="250" height="250" viewBox="0 0 250 250" fill="none" xmlns="http://www.w3.org/2000/svg">
  <path d="M24.607 17.507c5.734-.408 13.346-.054 19.26-.167 6.903.139 13.94-.387 20.831.272 23.562 2.252 46.058 15.706 60.617 34.164 6.214 7.878 11.697 16.982 17.268 25.215l30.555 44.868 42.079 61.334c6.157 8.952 12.442 17.84 18.488 26.857 3.096 4.619 3.407 12.166.233 16.839-2.413 3.555-5.167 4.837-9.193 5.65-5.644.371-12.778-.025-18.503.106-20.988.478-36.452-.82-55.429-11.551-11.787-6.665-19.665-13.812-28.442-24.101-3.952-4.632-7.409-10.335-10.874-15.442q-9.758-14.55-19.73-28.952a5479 5479 0 0 1-50.141-73.31L25 54.908c-3.545-5.16-10.054-13.142-11.525-18.967a15.47 15.47 0 0 1 1.693-11.707c2.193-3.64 5.395-5.69 9.438-6.728m197.418-.214c8.057.03 13.329 3.394 14.851 12.023.256 2.496.221 5.974-1.104 8.165-8.47 14.012-18.879 27.954-28.352 41.28l-17.314 24.727c-2.555 3.674-5.32 8.092-7.987 11.54-4.214-4.081-11.926-16.157-15.629-21.678a2793 2793 0 0 1-26.186-39.467c-3.19-4.852-8.813-12.14-11.371-16.88 3.515-4.66 6.612-9.95 10.391-14.275 5.474-6.266 14.045-5.328 21.519-5.353 3.999-.013 8.136.015 12.203.021z" fill="#0a0745"></path>
  <path d="M66.7 135.917c1.756.772 3.788 3.84 4.865 5.485 15.365 23.482 32.204 46.612 47.008 70.427-2.681 4.34-5.294 8.781-8.297 12.92-5.829 8.033-14.69 6.685-23.587 6.744l-21.438.135-25.079.157c-5.025.057-10.002.237-15.033-.058-7.67-.449-11.728-7.544-11.487-14.653.168-4.933 2.408-8.217 5.073-12.153C34.43 181.722 51.028 159.14 66.7 135.917" fill="#fa5728"></path>
</svg>
