<svg width="760" height="192" viewBox="0 0 760 192" fill="none" xmlns="http://www.w3.org/2000/svg"><path d="M443.23.062c33.208-1.343 30.269 19.316 30.809 43.767 8.935-4.885 16.622-7.593 26.99-7.775a52.8 52.8 0 0 1 37.955 14.71c19.452 19 17.584 38.103 17.603 62.695q-.069 19.397.2 38.794c-28.929-7.909-29.903-22.719-29.725-49.184.065-5.94.329-11.96-1.263-17.764-4.02-14.648-18.97-23.783-33.868-18.843a25.37 25.37 0 0 0-11.992 8.315c-13.42 16.761-.332 41.134-10.143 59.295-3.974 7.355-10.459 12.362-18.455 14.868-1.818.57-5.809 1.252-7.529.322-.541-3.506-.192-11.953-.188-15.95l-.104-30.741c-.147-33.38-1.002-69.328-.29-102.509M297.92 36.013a42 42 0 0 1 3.862-.207 57.76 57.76 0 0 1 41.399 16.763c18.274 18.212 16.794 39.74 16.793 63.246l-.03 36.153a65 65 0 0 1-3.621-.837c-7.447-1.958-13.124-5.113-18.125-10.952-15.707-17.797-2.638-42.88-12.82-61.855-6.453-12.025-25.556-14.9-36.494-7.273-6.574 4.585-9.331 11.467-10.81 19.09a98 98 0 0 0-.003 3.388 26.3 26.3 0 0 0 8.255 18.819c7.815 7.221 19.98 8.542 29.564 4.398 4.806-2.079 7.432-4.777 10.767-8.533-.378 13.046-.079 27.459-.07 40.607-22.136.136-38.562 2.358-57.164-11.806a57.1 57.1 0 0 1-22.131-37.768 56.9 56.9 0 0 1 11.79-42.57c10.026-12.637 23.059-18.859 38.838-20.663" fill="currentColor"></path><path d="M613.86 36.015a53.86 53.86 0 0 1 37.148 10.012c13.796 10.01 28.746 35.89 19.239 54.579-1.053 2.069-5.281 3.946-7.713 3.966-13.117.108-26.342.214-39.469.293-5.292.033-10.936.12-15.015-3.797-4.614-4.167-5.701-14.15-.821-18.539 7.38-6.636 23.032-4.318 32.687-4.357-1.366-2.438-3.392-5.518-5.622-7.263-27.156-21.248-57.153 18.233-33.832 41.915 8.395 7.117 17.542 8.677 28.054 4.86 2.344-.852 4.483-3.059 7.138-3.138 10.496-.311 21.539-.189 32.019-.229-10.171 34.409-59.265 44.359-85.196 21.79-37.546-32.676-19.159-94.9 31.383-100.092M367.597 1.24c7.608 1.268 13.154 3.003 18.904 8.26 11.348 10.32 9.923 24.506 9.838 38.4-.085 14.112-.171 28.276-.017 42.385.152 13.871 7.762 26.423 21.435 30.516 6.086 1.821 11.008 1.487 17.251 1.247l.003 27.677q-4.327.091-8.655.076c-17.438-.144-30.406-5.018-42.923-17.363-19.958-19.687-15.882-44.68-15.891-70.24q-.134-30.48.055-60.958" fill="currentColor"></path><path d="M14.727 15.03c6.359-.4 18.35.677 23.157 4.66 11.603 9.614 23.026 29.711 31.058 42.101l21.434 32.425c10.183 15.435 20.943 30.563 31.19 45.958 5.592 8.401.776 10.005-6.583 10.679-3.896-.026-6.346.045-10.149-.759a32.47 32.47 0 0 1-16.02-8.743c-5.172-5.15-9.394-12.016-13.605-18.015a956 956 0 0 1-24.466-36.073L3.508 15.99c3.538-.542 7.607-.72 11.219-.96" fill="#fa5728"></path><path d="M734.828 36.018c7.949-.35 16.616-.175 24.628-.154-1.491 13.387-7.691 23.973-20.964 28.771-6.335 1.985-14.536 3.167-19.329 8.383-20.209 21.992 3.697 48.954-20.366 71.197-5.969 5.109-11.334 6.375-18.766 7.807l-.209-36.105c-.042-23.6-1.196-39.74 15.174-59.518 10.28-12.419 23.876-18.98 39.832-20.38" fill="currentColor"></path><path d="M176.885 35.976q1.586-.179 3.181-.243c15.249-.579 29.318 4.101 40.497 14.6a58.82 58.82 0 0 1 18.567 41.612c.481 22.466-11.847 41.167-31.944 50.744-14.022 6.682-28.191 5.788-43.255 6.068a1303 1303 0 0 0-.164-36.505l.696.591c6.471 5.386 13.547 8.261 22.159 7.2a25.77 25.77 0 0 0 17.412-9.912 27.72 27.72 0 0 0 5.606-21.04c-1.188-8.443-5.191-14.635-11.915-19.733-5.675-3.502-10.883-5.228-17.625-4.09a27.16 27.16 0 0 0-14.054 6.997c-10.624 10.09-9.055 22.8-9.029 36.16l.088 34.021c.019 6.879.431 17.271-.865 23.701a32.5 32.5 0 0 1-5.873 13.236c-5.732 7.678-13.009 11.042-22.315 12.329l.034-68.632c.002-11.616-.7-31.71 1.379-42.264a60.4 60.4 0 0 1 10.71-23.914c9.463-12.885 21.245-18.504 36.71-20.926M42.402 83.728c3.878 4.949 13.352 20.53 17.2 26.467-2.364 3.865-5.091 7.808-7.672 11.544-8.881 12.852-16.119 26.484-33.244 28.115L0 149.773c1.543-2.56 3.287-5.057 4.9-7.583 12.482-19.541 24.666-39.14 37.502-58.462m64.827-67.216c5.775-.338 12.319-.184 18.156-.177-4.671 7.914-10.75 16.2-16.093 23.727a947 947 0 0 0-24.498 35.542c-.193.22-.51.287-.772.414-4.756-5.08-13.274-18.233-16.931-24.272 2.998-5.747 9.823-15.87 13.906-20.904 7.033-8.67 15.134-13.298 26.232-14.33" fill="#fa5728"></path><path d="M401.907 41.888c11.577.026 23.613-.116 35.148.344.093 7.405-.906 11.471-5.1 17.497-3.813 3.567-8.367 5.753-13.683 5.658a15.94 15.94 0 0 1-11.421-5.134c-5.267-5.684-5.046-11.32-4.944-18.365" fill="currentColor"></path></svg>
